<svg xmlns="http://www.w3.org/2000/svg" width="136.754" height="140.035" viewBox="0 0 136.754 140.035"><defs><style>.a{fill:#ffb782;}.b{fill:#fe3d5c;}.c{fill:#ff7188;}.d{fill:#5eb3d1;}.e{fill:#6bdddd;}.f{fill:#6b962a;}.g{fill:#fdb62f;}.h{fill:#fd7b2f;}.i{fill:#f2a46f;}.j{fill:#161616;}.k{fill:#4d4d4d;}</style></defs><g transform="translate(1.64 3.639)"><g transform="translate(-1.64 -3.639)"><path class="a" d="M480.632,94.548,457.258,71.13v93.844h31.281V113.563A26.813,26.813,0,0,0,480.632,94.548Z" transform="translate(-354.019 -49.517)"/><path class="b" d="M28.427,100.316,10.757,54.445a8.936,8.936,0,0,1,5.128-11.552l83.4-32.126A8.936,8.936,0,0,1,110.839,15.9l17.669,45.872a8.936,8.936,0,0,1-5.128,11.552l-83.4,32.126A8.94,8.94,0,0,1,28.427,100.316Z" transform="translate(-10.156 -10.166)"/><path class="b" d="M142.212,111.368l-100,38.762,6.659,17.285,100.006-38.744Z" transform="translate(-30.236 -80.907)"/><path class="b" d="M10.161,73.431V19.895c0-5.375,4-9.734,8.938-9.734h89.377c4.936,0,8.938,4.358,8.938,9.734V73.431c0,5.375-4,9.734-8.938,9.734H19.1C14.163,83.165,10.161,78.807,10.161,73.431Z" transform="translate(-10.161 -10.161)"/><path class="c" d="M185.761,10.161h-9.5L109.234,77.192h76.527a8.938,8.938,0,0,0,8.937-8.937V19.1A8.938,8.938,0,0,0,185.761,10.161Z" transform="translate(-87.447 -10.161)"/><rect class="d" width="8.937" height="4.469" transform="translate(13.864 43.957)"/><rect class="d" width="8.937" height="4.469" transform="translate(13.864 57.363)"/><rect class="d" width="8.937" height="4.469" transform="translate(54.083 57.363)"/><rect class="d" width="8.937" height="4.469" transform="translate(27.27 43.957)"/><rect class="d" width="8.937" height="4.469" transform="translate(40.676 43.957)"/><rect class="d" width="8.937" height="4.469" transform="translate(54.083 43.957)"/><rect class="d" width="4.469" height="6.703" transform="translate(96.536 17.144)"/><rect class="d" width="4.469" height="6.703" transform="translate(87.598 17.144)"/><rect class="d" width="4.469" height="6.703" transform="translate(78.661 17.144)"/><rect class="d" width="4.469" height="6.703" transform="translate(69.723 17.144)"/><rect class="e" width="40.219" height="22.344" transform="translate(94.301 115.457)"/><path class="a" d="M328.169,183.7a9.686,9.686,0,0,0-13.987,13.4l18.311,19.975a30.134,30.134,0,0,0,.61,30.917l1.624,2.6h29.047V219.308Z" transform="translate(-240.426 -135.132)"/><rect class="f" width="4.469" height="4.469" transform="translate(101.005 122.16)"/><path class="g" d="M50.806,65.107V54.382a3.574,3.574,0,0,1,3.575-3.575H65.106a3.574,3.574,0,0,1,3.575,3.575V65.107a3.574,3.574,0,0,1-3.575,3.575H54.381A3.574,3.574,0,0,1,50.806,65.107Z" transform="translate(-36.942 -33.662)"/><rect class="h" width="6.703" height="4.469" transform="translate(13.864 23.847)"/><rect class="h" width="6.703" height="4.469" transform="translate(25.036 23.847)"/><path class="i" d="M499.009,308.183a2.229,2.229,0,0,1-1.58-.655l-8.937-8.938a2.234,2.234,0,0,1,3.159-3.159l8.938,8.937a2.234,2.234,0,0,1-1.58,3.814Z" transform="translate(-377.896 -224.007)"/><path class="j" d="M111.719,23.671v-12.5A11.185,11.185,0,0,0,100.547,0H11.172A11.184,11.184,0,0,0,0,11.172V60.328A11.148,11.148,0,0,0,10.019,71.384l8.4,21.8A11.17,11.17,0,0,0,32.859,99.6l52.45-20.2a32.292,32.292,0,0,0,2.784,28.678l1.283,2.053v21.7a2.235,2.235,0,0,0,2.234,2.234h40.219a2.235,2.235,0,0,0,2.234-2.234V58.074a29.236,29.236,0,0,0-8.56-20.594Zm0,13.361,6.781,17.6a6.7,6.7,0,0,1-3.848,8.663l-3.877,1.5a11.142,11.142,0,0,0,.943-4.469ZM4.469,60.328V11.172a6.7,6.7,0,0,1,6.7-6.7h89.375a6.7,6.7,0,0,1,6.7,6.7v14.2h-.02l.02.051v34.9a6.729,6.729,0,0,1-.152,1.158L86.632,41.016A11.92,11.92,0,0,0,69.427,57.5l8.725,9.53H11.172a6.7,6.7,0,0,1-6.7-6.7ZM33.093,71.5,17.2,77.618,14.854,71.5ZM31.252,95.426a6.7,6.7,0,0,1-8.665-3.845h0l-3.769-9.8L45.49,71.5v-.013H82.247l2.9,3.166Zm98.342,34.168H93.844V111.719h35.75Zm0-22.344H92.849l-.97-1.548a27.865,27.865,0,0,1-.565-28.616,2.234,2.234,0,0,0-.293-2.619L72.711,54.492a7.452,7.452,0,0,1,10.761-10.3l35.6,35.6,3.159-3.159-8.267-8.267,2.293-.894a11.17,11.17,0,0,0,6.406-14.434L115.1,33.39l7.239,7.253a24.741,24.741,0,0,1,7.25,17.43V107.25Z" transform="translate(2.692 5.973)"/><path class="j" d="M57.18,62.99A5.809,5.809,0,0,0,62.99,57.18h0V46.455a5.809,5.809,0,0,0-5.809-5.809H46.455a5.809,5.809,0,0,0-5.809,5.809h0V57.18a5.809,5.809,0,0,0,5.809,5.809H57.18ZM45.115,57.18V54.052h4.469V49.583H45.115V46.455a1.342,1.342,0,0,1,1.341-1.341H57.18a1.342,1.342,0,0,1,1.341,1.341h0v3.128H54.052v4.469h4.469V57.18a1.342,1.342,0,0,1-1.341,1.341H46.455a1.342,1.342,0,0,1-1.341-1.341Z" transform="translate(-29.016 -25.736)"/><rect class="j" width="8.937" height="4.469" transform="translate(13.864 43.957)"/><rect class="j" width="8.937" height="4.469" transform="translate(13.864 57.363)"/><rect class="j" width="8.937" height="4.469" transform="translate(54.083 57.363)"/><rect class="j" width="8.937" height="4.469" transform="translate(27.27 43.957)"/><rect class="j" width="8.937" height="4.469" transform="translate(40.676 43.957)"/><rect class="j" width="8.937" height="4.469" transform="translate(54.083 43.957)"/><rect class="j" width="4.469" height="6.703" transform="translate(96.536 17.144)"/><rect class="j" width="4.469" height="6.703" transform="translate(87.598 17.144)"/><rect class="j" width="4.469" height="6.703" transform="translate(78.661 17.144)"/><rect class="j" width="4.469" height="6.703" transform="translate(69.723 17.144)"/><rect class="k" width="4.469" height="4.469" transform="translate(101.005 122.16)"/></g></g></svg>