<svg xmlns="http://www.w3.org/2000/svg" width="172.984" height="142.442" viewBox="0 0 172.984 142.442"><defs><style>.a{fill:#fe3d5c;}.b{fill:#edf4fc;}.c{fill:#f5c84c;}.d{fill:#70d6f9;}.e{fill:#fc657e;}.f{fill:#87d147;}.g{fill:#161616;}.h{fill:#6bdddd;}</style></defs><g transform="translate(0 -1.938)"><g transform="translate(0)"><path class="a" d="M140.156,87.972a9.646,9.646,0,0,0-3.724-.186c-1.862.5-3.476,3.1-5.462,3.1s-3.662-2.607-5.462-3.1c-1.924-.5-4.655.931-6.33-.062s-1.8-4.034-3.165-5.462l-.062-.062H2.5l19.8,68.828h135.98Z" transform="translate(-2.5 -46.852)"/><g transform="translate(47.276 77.372)"><path class="b" d="M76.631,143.568a11.37,11.37,0,0,0-4.469-4.593,12.8,12.8,0,0,0-12.661,0,11.139,11.139,0,0,0-4.469,4.655,14.594,14.594,0,0,0,0,13.219A12.38,12.38,0,0,0,59.5,161.5a12.8,12.8,0,0,0,12.661,0,12.675,12.675,0,0,0,4.469-4.593A14.476,14.476,0,0,0,76.631,143.568Zm-4.965,10.675a6.182,6.182,0,0,1-5.834,3.414,7.4,7.4,0,0,1-3.476-.869A6.207,6.207,0,0,1,60,154.243a9.784,9.784,0,0,1,0-8.13,6.208,6.208,0,0,1,2.358-2.545,7.271,7.271,0,0,1,6.951,0,6.208,6.208,0,0,1,2.358,2.545A9.341,9.341,0,0,1,71.665,154.243Z" transform="translate(-53.45 -137.3)"/><path class="b" d="M109.488,137.8H96.765a1.378,1.378,0,0,0-1.365,1.365v22.529a1.378,1.378,0,0,0,1.365,1.365h2.917a1.377,1.377,0,0,0,1.365-1.365v-8.751h7.013a1.378,1.378,0,0,0,1.365-1.365v-2.3a1.377,1.377,0,0,0-1.365-1.365h-7.013v-5.089h8.5a1.378,1.378,0,0,0,1.365-1.365v-2.3a1.477,1.477,0,0,0-1.427-1.365Z" transform="translate(-69.365 -137.49)"/><path class="b" d="M135.588,137.8H122.865a1.378,1.378,0,0,0-1.365,1.365v22.529a1.377,1.377,0,0,0,1.365,1.365h2.917a1.378,1.378,0,0,0,1.365-1.365v-8.751h7.013a1.378,1.378,0,0,0,1.365-1.365v-2.3a1.377,1.377,0,0,0-1.365-1.365h-7.013v-5.089h8.5a1.378,1.378,0,0,0,1.365-1.365v-2.3A1.477,1.477,0,0,0,135.588,137.8Z" transform="translate(-79.266 -137.49)"/><path class="b" d="M161.378,142.827a1.377,1.377,0,0,0,1.365-1.365v-2.3a1.378,1.378,0,0,0-1.365-1.365H148.965a1.378,1.378,0,0,0-1.365,1.365v22.529a1.377,1.377,0,0,0,1.365,1.365h12.413a1.377,1.377,0,0,0,1.365-1.365v-2.358a1.378,1.378,0,0,0-1.365-1.365h-8.192v-5.151h7.2a1.378,1.378,0,0,0,1.365-1.365V149.22a1.378,1.378,0,0,0-1.365-1.365h-7.2v-5.027Z" transform="translate(-89.168 -137.49)"/><path class="b" d="M191.35,160.95l-5.089-7.7a7.292,7.292,0,0,0,5.151-7.386,7.634,7.634,0,0,0-2.358-5.834q-2.327-2.234-6.7-2.234h-7.386a1.378,1.378,0,0,0-1.365,1.365v22.529a1.378,1.378,0,0,0,1.365,1.365h2.917a1.378,1.378,0,0,0,1.365-1.365v-7.882H180.3l5.462,8.565a1.387,1.387,0,0,0,1.117.621h3.289a1.377,1.377,0,0,0,1.365-1.365A.888.888,0,0,0,191.35,160.95Zm-9.185-11.916h-2.917v-6.02h2.917c3.165,0,3.6,1.427,3.6,2.979S185.33,149.033,182.165,149.033Z" transform="translate(-99.031 -137.49)"/></g><path class="a" d="M176.7,193.1l7.882,27.68,39.782-27.68Z" transform="translate(-63.89 -76.4)"/><path class="c" d="M122.563,47.487a6.153,6.153,0,0,1-4.965-4.841c0-.062-.062-.124-.124-.062a.061.061,0,0,0-.062.062,6.153,6.153,0,0,1-4.965,4.841c-.062,0-.124.062-.062.124a.061.061,0,0,0,.062.062,6.153,6.153,0,0,1,4.965,4.841c0,.062.062.124.124.062a.061.061,0,0,0,.062-.062,6.153,6.153,0,0,1,4.965-4.841.133.133,0,0,0,.124-.124C122.687,47.487,122.625,47.487,122.563,47.487Z" transform="translate(-28.522 -23.986)"/><path class="d" d="M157.116,210.727h-1.365v-1.365a1.862,1.862,0,0,0-3.724,0v1.365h-1.365a1.862,1.862,0,1,0,0,3.724h1.365v1.365a1.862,1.862,0,0,0,3.724,0v-1.365h1.365a1.862,1.862,0,1,0,0-3.724Z" transform="translate(-42.346 -86.559)"/><circle class="c" cx="1.986" cy="1.986" r="1.986" transform="translate(20.682 106.17)"/><circle class="e" cx="1.986" cy="1.986" r="1.986" transform="translate(74.057 29.211)"/><circle class="f" cx="1.986" cy="1.986" r="1.986" transform="translate(92.676 119.203)"/><g transform="translate(46.865 52.84)"><path class="g" d="M65.332,108.775a6.317,6.317,0,0,0-2.048-1.8,22.687,22.687,0,0,0-2.855-1.117,21.253,21.253,0,0,1-2.11-.807,2.676,2.676,0,0,1-1.055-.807,1.859,1.859,0,0,1-.372-1.117,1.624,1.624,0,0,1,.559-1.365,2.338,2.338,0,0,1,1.676-.5,2.413,2.413,0,0,1,2.607,1.924.859.859,0,0,0,.807.683h2.42a.822.822,0,0,0,.807-.807v-.124a5.753,5.753,0,0,0-2.048-3.724,6.932,6.932,0,0,0-4.655-1.427,8.083,8.083,0,0,0-3.227.621,5.172,5.172,0,0,0-2.234,1.924,5.242,5.242,0,0,0-.807,2.855,4.845,4.845,0,0,0,.869,3.041,5.58,5.58,0,0,0,2.048,1.738,17.084,17.084,0,0,0,2.793,1.055c.745.248,1.427.5,2.172.807a3.033,3.033,0,0,1,1.117.869,2.261,2.261,0,0,1-.186,2.731,2.27,2.27,0,0,1-1.738.559,3.365,3.365,0,0,1-1.552-.372,2.1,2.1,0,0,1-.931-.869,2.392,2.392,0,0,1-.372-1.117.81.81,0,0,0-.807-.745h-2.42a.822.822,0,0,0-.807.807v.062a4.991,4.991,0,0,0,1.117,2.917,6,6,0,0,0,2.483,1.986,8.666,8.666,0,0,0,6.889-.062,5.573,5.573,0,0,0,2.11-2.048,5.745,5.745,0,0,0,.683-2.731A5.623,5.623,0,0,0,65.332,108.775Z" transform="translate(-52.787 -97.772)"/><path class="g" d="M88.182,100.014A7.359,7.359,0,0,0,83.092,98.4H77.507a.822.822,0,0,0-.807.807v17.564a.822.822,0,0,0,.807.807h2.3a.822.822,0,0,0,.807-.807V110.5h2.483a7.3,7.3,0,0,0,5.027-1.614,5.52,5.52,0,0,0,1.8-4.469,5.755,5.755,0,0,0-1.738-4.406Zm-2.855,6.33a3.44,3.44,0,0,1-2.42.621h-2.3v-5.089h2.3a3.653,3.653,0,0,1,2.42.621,2.47,2.47,0,0,1,.683,1.924A3.165,3.165,0,0,1,85.327,106.344Z" transform="translate(-61.859 -98.011)"/><path class="g" d="M110.189,101.775a.822.822,0,0,0,.807-.807V99.107a.822.822,0,0,0-.807-.807h-9.682a.822.822,0,0,0-.807.807v17.626a.822.822,0,0,0,.807.807h9.682a.822.822,0,0,0,.807-.807v-1.862a.822.822,0,0,0-.807-.807h-6.641v-4.531h5.9a.822.822,0,0,0,.807-.807v-1.738a.822.822,0,0,0-.807-.807h-5.9v-4.406Z" transform="translate(-70.585 -97.972)"/><path class="g" d="M136.4,110h-2.42a.806.806,0,0,0-.745.5,5.125,5.125,0,0,1-1.862,2.42,5.279,5.279,0,0,1-3.227.869,4.767,4.767,0,0,1-4.469-2.793,6.446,6.446,0,0,1-.683-3.227,7.635,7.635,0,0,1,.683-3.289,4.829,4.829,0,0,1,4.469-2.793,5.513,5.513,0,0,1,3.227.869,4.844,4.844,0,0,1,1.862,2.42.806.806,0,0,0,.745.5h2.42a.822.822,0,0,0,.807-.807.469.469,0,0,0-.062-.248,9.188,9.188,0,0,0-3.165-4.779,9.648,9.648,0,0,0-5.834-1.738,9.793,9.793,0,0,0-4.779,1.241,9.032,9.032,0,0,0-3.289,3.538,11.3,11.3,0,0,0,0,10.054,8.447,8.447,0,0,0,3.289,3.476,8.615,8.615,0,0,0,4.779,1.241,9.9,9.9,0,0,0,5.834-1.738,8.726,8.726,0,0,0,3.165-4.779.8.8,0,0,0-.559-.993A.228.228,0,0,1,136.4,110Z" transform="translate(-77.869 -97.818)"/><path class="g" d="M151.5,98.3h2.3a.822.822,0,0,1,.807.807v17.626a.822.822,0,0,1-.807.807h-2.3a.822.822,0,0,1-.807-.807V99.107a.748.748,0,0,1,.807-.807Z" transform="translate(-89.928 -97.972)"/><path class="g" d="M175.129,116.612l-6.517-17.254a.869.869,0,0,0-.745-.559h-2.545a.78.78,0,0,0-.745.559l-6.517,17.254a.8.8,0,0,0,.5,1.055.465.465,0,0,0,.31.062h2.42a.687.687,0,0,0,.745-.559l1.3-3.538h6.579l1.3,3.538a.869.869,0,0,0,.745.559h2.42a.822.822,0,0,0,.807-.807A.56.56,0,0,0,175.129,116.612Zm-10.551-6.33,2.048-5.648,2.048,5.648Z" transform="translate(-92.702 -98.162)"/><path class="g" d="M196.109,114.126h-5.4V99.107a.822.822,0,0,0-.807-.807h-2.3a.822.822,0,0,0-.807.807v17.626a.822.822,0,0,0,.807.807h8.5a.822.822,0,0,0,.807-.807v-1.8A.782.782,0,0,0,196.109,114.126Z" transform="translate(-103.628 -97.973)"/></g><path class="h" d="M215.465,49.245c.5-1.862,3.1-3.476,3.1-5.462s-2.607-3.662-3.1-5.462c-.5-1.924.931-4.655-.062-6.33s-4.034-1.8-5.462-3.165-1.49-4.469-3.165-5.462-4.406.434-6.33-.062c-1.862-.5-3.476-3.1-5.462-3.1s-3.662,2.607-5.462,3.1c-1.924.5-4.655-.931-6.33.062s-1.8,4.034-3.165,5.462-4.469,1.49-5.462,3.165.434,4.406-.062,6.33c-.5,1.862-3.1,3.476-3.1,5.462s2.607,3.662,3.1,5.462c.5,1.924-.931,4.655.062,6.33s4.034,1.8,5.462,3.165,1.489,4.469,3.165,5.462,4.407-.434,6.33.062c1.862.5,3.476,3.1,5.462,3.1s3.662-2.607,5.462-3.1c1.924-.5,4.655.931,6.33-.062s1.8-4.034,3.165-5.462,4.468-1.49,5.462-3.165C216.4,53.838,214.968,51.107,215.465,49.245Z" transform="translate(-50.617 -15.2)"/><path class="g" d="M208.961,50.113c-.869-.372-1.8-.683-2.731-.993V42.851A3.26,3.26,0,0,1,208.4,45.4a.267.267,0,0,0,.248.248h2.731c.124,0,.31-.124.31-.248v-.062a6.017,6.017,0,0,0-5.462-5.089V38.072a.4.4,0,0,0-.372-.372h-1.552a.4.4,0,0,0-.372.372V40.12c-3.538.248-5.834,2.3-5.834,5.4,0,3.662,2.545,4.779,5.834,5.834v6.579a3.689,3.689,0,0,1-2.545-3.041.267.267,0,0,0-.248-.248h-2.669a.412.412,0,0,0-.31.248c.248,2.855,2.545,5.027,5.772,5.586v1.986a.4.4,0,0,0,.372.372h1.552a.4.4,0,0,0,.372-.372V60.6c4.034-.248,5.834-2.917,5.834-5.524a5.018,5.018,0,0,0-3.1-4.965ZM204,48.375a6.537,6.537,0,0,1-1.8-1.055,2.417,2.417,0,0,1-.807-1.986A2.607,2.607,0,0,1,204,42.6Zm2.234,9.62V52.037c1.614.621,2.607,1.365,2.607,3.041A2.815,2.815,0,0,1,206.23,57.995Z" transform="translate(-61.049 -22.142)"/><path class="g" d="M158.819,126.086,141.255,64.954a5.362,5.362,0,0,0,1.3-.434c1.427-.807,1.986-2.358,2.545-3.724a6.624,6.624,0,0,1,.993-1.986,5.973,5.973,0,0,1,1.986-.993,6.459,6.459,0,0,0,3.724-2.545,6.4,6.4,0,0,0,.31-4.406,6.781,6.781,0,0,1-.124-2.234,6.941,6.941,0,0,1,1.179-1.8,6.589,6.589,0,0,0,1.986-4.1,6.589,6.589,0,0,0-1.986-4.1,6.034,6.034,0,0,1-1.179-1.8,6.781,6.781,0,0,1,.124-2.234c.248-1.427.5-3.041-.31-4.406-.807-1.427-2.358-1.986-3.724-2.545a6.623,6.623,0,0,1-1.986-.993,5.974,5.974,0,0,1-.993-1.986,6.459,6.459,0,0,0-2.545-3.724,6.4,6.4,0,0,0-4.406-.31,6.78,6.78,0,0,1-2.234.124,6.939,6.939,0,0,1-1.8-1.179,5.217,5.217,0,0,0-8.192,0,6.034,6.034,0,0,1-1.8,1.179,6.78,6.78,0,0,1-2.234-.124c-1.427-.248-3.041-.5-4.406.31-1.427.807-1.986,2.358-2.545,3.724a6.624,6.624,0,0,1-.993,1.986,5.973,5.973,0,0,1-1.986.993,6.459,6.459,0,0,0-3.724,2.545,6.4,6.4,0,0,0-.31,4.406,6.779,6.779,0,0,1,.124,2.234,6.939,6.939,0,0,1-1.179,1.8,6.589,6.589,0,0,0-1.986,4.1,6.589,6.589,0,0,0,1.986,4.1,6.033,6.033,0,0,1,1.179,1.8,6.779,6.779,0,0,1-.124,2.234c-.248,1.427-.5,3.041.31,4.406a2.785,2.785,0,0,0,.683.807H1.552A1.537,1.537,0,0,0,0,57.631a1.056,1.056,0,0,0,.062.434l19.8,68.89a1.527,1.527,0,0,0,1.49,1.117h87.136l7.572,26.563a1.568,1.568,0,0,0,1.924,1.055,1,1,0,0,0,.434-.248l39.782-27.68a1.44,1.44,0,0,0,.621-1.676ZM107.927,42.735a4.634,4.634,0,0,1,1.3-2.172,9.521,9.521,0,0,0,1.8-2.917,8.5,8.5,0,0,0-.062-3.538,5.379,5.379,0,0,1-.062-2.42c.248-.5,1.241-.869,2.11-1.179a9.094,9.094,0,0,0,3.041-1.676,8.126,8.126,0,0,0,1.676-3.041c.31-.869.683-1.862,1.179-2.11a4.6,4.6,0,0,1,2.42.062,8.5,8.5,0,0,0,3.538.062,7.451,7.451,0,0,0,2.917-1.8c.745-.621,1.552-1.3,2.172-1.3s1.365.621,2.172,1.3a9.521,9.521,0,0,0,2.917,1.8,8.5,8.5,0,0,0,3.538-.062,5.379,5.379,0,0,1,2.42-.062c.5.248.869,1.241,1.179,2.11a9.1,9.1,0,0,0,1.676,3.041,8.126,8.126,0,0,0,3.041,1.676,4.713,4.713,0,0,1,2.11,1.179,4.6,4.6,0,0,1-.062,2.42,8.5,8.5,0,0,0-.062,3.538,7.451,7.451,0,0,0,1.8,2.917c.621.745,1.3,1.552,1.3,2.172s-.621,1.365-1.3,2.172a9.52,9.52,0,0,0-1.8,2.917,8.5,8.5,0,0,0,.062,3.538,5.379,5.379,0,0,1,.062,2.42c-.248.5-1.241.869-2.11,1.179a9.1,9.1,0,0,0-3.041,1.676,8.126,8.126,0,0,0-1.676,3.041c-.31.869-.683,1.862-1.179,2.11a4.6,4.6,0,0,1-2.42-.062,8.5,8.5,0,0,0-3.538-.062,7.451,7.451,0,0,0-2.917,1.8c-.745.621-1.552,1.3-2.172,1.3s-1.365-.621-2.172-1.3a9.52,9.52,0,0,0-2.917-1.8,5.17,5.17,0,0,0-1.365-.186,8.649,8.649,0,0,0-2.172.248,5.379,5.379,0,0,1-2.42.062c-.5-.248-.869-1.241-1.179-2.11a9.1,9.1,0,0,0-1.676-3.041c-.745-.869-.062-.062-.062-.062a8.982,8.982,0,0,0-2.917-1.614,4.713,4.713,0,0,1-2.11-1.179,4.6,4.6,0,0,1,.062-2.42,8.5,8.5,0,0,0,.062-3.538,7.451,7.451,0,0,0-1.8-2.917A4.363,4.363,0,0,1,107.927,42.735Zm10.489,108.983-6.7-23.584h40.651ZM22.529,124.969,3.6,59.244H114.2a11.724,11.724,0,0,1,.683,1.552,5.126,5.126,0,0,0,6.951,4.034,6.781,6.781,0,0,1,2.234-.124,6.938,6.938,0,0,1,1.8,1.179,5.217,5.217,0,0,0,8.192,0,6.033,6.033,0,0,1,1.8-1.179,6.057,6.057,0,0,1,2.11.124l17.316,60.139Z" transform="translate(14.104 -14.517)"/><path class="g" d="M68.416,143.6c-4.779,0-8.316,3.413-8.316,9,0,5.4,3.351,9,8.316,9,4.655,0,8.254-3.413,8.254-9C76.671,146.951,73.071,143.6,68.416,143.6Zm0,14.9c-3.476,0-5.213-2.545-5.213-5.9,0-3.476,1.8-5.9,5.213-5.9s5.151,2.545,5.151,5.9C73.568,156.013,71.768,158.5,68.416,158.5Z" transform="translate(-8.696 -62.318)"/><path class="g" d="M146.143,158.978l-4.1-6.144a7.86,7.86,0,0,0,2.11-1.676,9.221,9.221,0,0,0,2.3-6.392,9.358,9.358,0,0,0-2.793-6.951,10.885,10.885,0,0,0-7.758-2.669h-7.385a2.866,2.866,0,0,0-1.862.683,2.866,2.866,0,0,0-1.862-.683H112.38a2.9,2.9,0,0,0-1.738.559,2.9,2.9,0,0,0-1.738-.559H96.182a2.9,2.9,0,0,0-1.738.559,2.9,2.9,0,0,0-1.738-.559H79.921A2.914,2.914,0,0,0,77,138.063v3.786a13.511,13.511,0,0,0-12.04-6.951C57.082,134.9,51,140.918,51,149.358c0,8.378,6.02,14.461,13.964,14.461A13.424,13.424,0,0,0,77,156.868v3.786a2.914,2.914,0,0,0,2.917,2.917h2.917a2.914,2.914,0,0,0,2.917-2.917v-7.2h5.462a2.92,2.92,0,0,0,2.048-.869v8.068a2.914,2.914,0,0,0,2.917,2.917H99.1a2.914,2.914,0,0,0,2.917-2.917v-7.2h5.462a2.92,2.92,0,0,0,2.048-.869v8.068a2.914,2.914,0,0,0,2.917,2.917h12.413a2.866,2.866,0,0,0,1.862-.683,2.866,2.866,0,0,0,1.862.683H131.5a2.914,2.914,0,0,0,2.917-2.917v-4.22l3.724,5.772a2.981,2.981,0,0,0,2.42,1.365h3.289a2.914,2.914,0,0,0,2.917-2.917,4.927,4.927,0,0,0-.621-1.676Zm-81.178,1.676c-6.268,0-10.861-4.717-10.861-11.358,0-6.765,4.717-11.358,10.861-11.358,6.33,0,10.8,4.779,10.8,11.358C75.763,155.813,71.295,160.654,64.964,160.654Zm26-10.365H84.2a1.537,1.537,0,0,0-1.552,1.552v8.565H80.17V138.311H92.52V140.3H84.2a1.537,1.537,0,0,0-1.552,1.552v5.089a1.537,1.537,0,0,0,1.552,1.552h6.765Zm2.234-4.158a2.921,2.921,0,0,0-2.048-.869H85.693v-1.986h6.951a1.719,1.719,0,0,0,.559-.062Zm13.964,4.158H100.4a1.537,1.537,0,0,0-1.552,1.552v8.565H96.368V138.311h12.351V140.3H100.4a1.537,1.537,0,0,0-1.552,1.552v5.089a1.537,1.537,0,0,0,1.552,1.552h6.765Zm2.234-4.158a2.921,2.921,0,0,0-2.048-.869h-5.462v-1.986h6.951a1.719,1.719,0,0,0,.559-.062Zm15.143,14.212H112.5V138.249h12.04v1.986H116.6a1.537,1.537,0,0,0-1.552,1.552v5.027a1.537,1.537,0,0,0,1.552,1.552h7.013v1.8H116.6a1.537,1.537,0,0,0-1.552,1.552v5.151a1.537,1.537,0,0,0,1.552,1.552h7.944Zm1.055-4.9a3.66,3.66,0,0,0-.869-.124H118.09v-2.048h5.648a3,3,0,0,0,1.8-.621Zm0-9.62a2.651,2.651,0,0,0-1.8-.621h-5.648v-1.924h6.641a4.191,4.191,0,0,0,.869-.124Zm14.957,14.523-5.4-8.5a1.687,1.687,0,0,0-1.3-.745H132.8a1.537,1.537,0,0,0-1.552,1.552v7.634h-2.483V138.187h7.2c2.482,0,4.406.621,5.586,1.8a6.958,6.958,0,0,1,.372,9,6.358,6.358,0,0,1-2.607,1.614,1.6,1.6,0,0,0-.993,1.986l.186.372,4.841,7.385Z" transform="translate(-5.244 -59.015)"/><path class="g" d="M184.668,143.7h-2.917a1.537,1.537,0,0,0-1.552,1.552v6.02a1.537,1.537,0,0,0,1.552,1.552h2.917c3.414,0,5.151-1.552,5.151-4.531S188.082,143.7,184.668,143.7Zm0,6.02H183.3V146.8h1.365c2.048,0,2.048.5,2.048,1.427S186.717,149.72,184.668,149.72Z" transform="translate(-54.259 -62.356)"/><path class="g" d="M165.631,24.6l-4.593-8.068a1.543,1.543,0,1,0-2.669,1.552l4.593,8.006a1.531,1.531,0,0,0,2.11.559A1.447,1.447,0,0,0,165.631,24.6Z" transform="translate(-45.896 -13.817)"/><path class="g" d="M153.286,36.224l-8.006-4.655a1.543,1.543,0,0,0-1.552,2.669l8.006,4.655a1.543,1.543,0,1,0,1.552-2.669Z" transform="translate(-40.129 -19.735)"/><path class="g" d="M148.4,52.5h-9.247a1.552,1.552,0,0,0,0,3.1H148.4a1.537,1.537,0,0,0,1.552-1.552A1.576,1.576,0,0,0,148.4,52.5Z" transform="translate(-38.097 -27.757)"/></g></g></svg>