<svg xmlns="http://www.w3.org/2000/svg" width="131.241" height="140.579" viewBox="0 0 131.241 140.579"><defs><style>.a{fill:#fe3d5c;}.b{fill:#161616;}.c{fill:#e0ebfc;}.d{fill:#6bdddd;}.e{fill:#0060d8;}.f{fill:#f5c84c;}.g{fill:#70d6f9;}.h{fill:#ffcd43;}</style></defs><path class="a" d="M109.581,140.873l9.443,16.355,8.434,14.609,11.963,20.721a2.278,2.278,0,0,0,4.1-.318l6.162-15.956a3.416,3.416,0,0,1,3.715-2.145l16.9,2.641a2.278,2.278,0,0,0,2.325-3.39l-11.963-20.721-8.434-14.609L142.78,121.7Z" transform="translate(-64.454 -59.508)"/><path class="b" d="M140.525,193.976a3.388,3.388,0,0,1-2.951-1.708l-29.84-51.686a1.139,1.139,0,0,1,.417-1.556l33.2-19.168a1.139,1.139,0,0,1,1.556.417l29.84,51.686a3.417,3.417,0,0,1-3.487,5.084l-16.9-2.641a2.292,2.292,0,0,0-2.478,1.43l-6.162,15.956a3.39,3.39,0,0,1-2.923,2.175C140.706,193.972,140.615,193.976,140.525,193.976Zm-30.249-53.547,29.271,50.7a1.139,1.139,0,0,0,2.049-.159l6.162-15.957a4.585,4.585,0,0,1,4.954-2.859l16.9,2.641a1.139,1.139,0,0,0,1.162-1.695L141.5,122.4Z" transform="translate(-53.094 -53.397)"/><path class="a" d="M93.691,140.873l-9.443,16.356-8.434,14.609L63.851,192.559a2.278,2.278,0,0,1-4.1-.318l-6.162-15.957a3.416,3.416,0,0,0-3.715-2.145l-16.9,2.641a2.278,2.278,0,0,1-2.325-3.39L42.614,152.67l8.434-14.609,9.443-16.355Z" transform="translate(-30.341 -59.508)"/><path class="b" d="M61.024,193.976c-.091,0-.181,0-.273-.011a3.39,3.39,0,0,1-2.923-2.175l-6.162-15.956a2.294,2.294,0,0,0-2.477-1.43l-16.9,2.641A3.417,3.417,0,0,1,28.8,171.96l29.841-51.686a1.139,1.139,0,0,1,1.556-.417l33.2,19.168a1.139,1.139,0,0,1,.417,1.556L63.975,192.267a3.388,3.388,0,0,1-2.951,1.709ZM49.532,172.1a4.586,4.586,0,0,1,4.259,2.914l6.162,15.956a1.139,1.139,0,0,0,2.049.159l29.271-50.7L60.047,122.4,30.776,173.1a1.139,1.139,0,0,0,1.162,1.695l16.9-2.641a4.534,4.534,0,0,1,.694-.054Z" transform="translate(-18.98 -53.397)"/><path class="a" d="M137.789,52.937c0,4.734-7.092,8.289-8.479,12.561-1.437,4.427,2.16,11.462-.522,15.147-2.708,3.722-10.529,2.46-14.251,5.169-3.685,2.682-4.887,10.524-9.313,11.961-4.272,1.387-9.834-4.206-14.568-4.206s-10.3,5.592-14.568,4.206c-4.427-1.437-5.629-9.279-9.313-11.961-3.722-2.708-11.542-1.447-14.25-5.169C49.843,76.96,53.441,69.925,52,65.5c-1.387-4.272-8.479-7.826-8.479-12.56S50.617,44.649,52,40.377c1.437-4.427-2.16-11.462.522-15.147,2.708-3.722,10.529-2.46,14.251-5.169C70.461,17.38,71.663,9.538,76.089,8.1c4.272-1.387,9.834,4.206,14.568,4.206s10.3-5.592,14.568-4.206c4.427,1.437,5.629,9.279,9.313,11.961,3.722,2.708,11.542,1.447,14.25,5.169,2.682,3.685-.916,10.719.521,15.147,1.387,4.271,8.479,7.826,8.479,12.56Z" transform="translate(-30.767 -7.88)"/><circle class="c" cx="33.391" cy="33.391" r="33.391" transform="translate(31.748 14.291)"/><circle class="d" cx="26.512" cy="26.512" r="26.512" transform="translate(38.628 21.171)"/><path class="e" d="M14.065,48.225a12.659,12.659,0,0,1-5.132,5.66.6.6,0,0,0,0,1.038,12.657,12.657,0,0,1,5.132,5.66.594.594,0,0,0,1.08,0,12.657,12.657,0,0,1,5.132-5.66.6.6,0,0,0,0-1.038,12.657,12.657,0,0,1-5.132-5.66A.594.594,0,0,0,14.065,48.225Z" transform="translate(-7.523 -19.229)"/><path class="f" d="M214.146,108.392a18.9,18.9,0,0,1-7.659,8.447.891.891,0,0,0,0,1.549,18.886,18.886,0,0,1,7.659,8.447.887.887,0,0,0,1.611,0,18.886,18.886,0,0,1,7.659-8.447.891.891,0,0,0,0-1.549,18.887,18.887,0,0,1-7.659-8.447.887.887,0,0,0-1.611,0Z" transform="translate(-92.627 -45.187)"/><path class="g" d="M204.546,9.055A8.018,8.018,0,0,1,201.3,12.64a.378.378,0,0,0,0,.657,8.016,8.016,0,0,1,3.251,3.585.376.376,0,0,0,.684,0,8.018,8.018,0,0,1,3.251-3.585.378.378,0,0,0,0-.657,8.018,8.018,0,0,1-3.251-3.585A.376.376,0,0,0,204.546,9.055Z" transform="translate(-90.743 -2.811)"/><path class="a" d="M113.11,94.691l17.315-16.3a1.2,1.2,0,0,0-.819-2.067h-4.568a1.2,1.2,0,0,1-1.2-1.2V48.822a1.2,1.2,0,0,0-1.2-1.2H101.935a1.2,1.2,0,0,0-1.2,1.2v26.31a1.2,1.2,0,0,1-1.2,1.2H94.975a1.2,1.2,0,0,0-.819,2.067l17.315,16.3A1.2,1.2,0,0,0,113.11,94.691Z" transform="translate(-47.151 -22.366)"/><path class="h" d="M119.484,87.654c-3.136-.473-5.407-2.415-5.665-5.588a.572.572,0,0,1,.573-.612h2.481a.577.577,0,0,1,.566.488,3.094,3.094,0,0,0,1.7,2.423.576.576,0,0,0,.827-.516V77.857a.574.574,0,0,0-.418-.552c-2.819-.8-5.754-1.838-5.754-6.242a6.358,6.358,0,0,1,5.693-6.5.57.57,0,0,0,.48-.564V62.392a.573.573,0,0,1,.573-.573h.765a.573.573,0,0,1,.573.573v1.577a.568.568,0,0,0,.479.564,5.991,5.991,0,0,1,5.389,5.386.574.574,0,0,1-.57.651h-2.457a.581.581,0,0,1-.562-.464,3.278,3.278,0,0,0-1.382-2.048.576.576,0,0,0-.9.474v5.762a.573.573,0,0,0,.424.553c2.815.766,5.719,1.779,5.719,6.18a6.556,6.556,0,0,1-5.664,6.592.57.57,0,0,0-.479.563V89.8a.573.573,0,0,1-.573.573h-.765a.573.573,0,0,1-.573-.573V88.218a.569.569,0,0,0-.483-.564Zm.483-14.333V68.282a.57.57,0,0,0-.747-.547,3.343,3.343,0,0,0-.084,6.1A.575.575,0,0,0,119.968,73.321Zm1.911,5.512v5.033a.577.577,0,0,0,.81.524,3.3,3.3,0,0,0,1.953-3.164,3,3,0,0,0-1.936-2.907.576.576,0,0,0-.828.515Z" transform="translate(-55.769 -28.476)"/><g transform="translate(16.868 1.484)"><path class="b" d="M102.909,98.273c-2.262,0-4.621-1.162-6.92-2.294-2.129-1.048-4.33-2.133-6.194-2.133S85.73,94.93,83.6,95.978C80.684,97.416,77.664,98.9,74.876,98c-2.918-.948-4.514-4-6.058-6.953C67.753,89,66.652,86.9,65.243,85.872c-1.436-1.045-3.8-1.449-6.091-1.841-3.26-.558-6.631-1.134-8.41-3.579-1.759-2.417-1.273-5.781-.8-9.035.334-2.315.679-4.71.121-6.43-.524-1.613-2.092-3.212-3.751-4.9-2.352-2.4-4.783-4.878-4.783-8.008s2.432-5.609,4.783-8.008c1.66-1.693,3.227-3.292,3.751-4.9.558-1.72.213-4.115-.121-6.43-.469-3.254-.955-6.619.8-9.036,1.779-2.445,5.15-3.021,8.411-3.579,2.289-.392,4.656-.8,6.091-1.841,1.408-1.025,2.509-3.132,3.574-5.169,1.543-2.953,3.14-6.006,6.058-6.954,2.788-.907,5.808.58,8.726,2.017C85.73,9.22,87.932,10.3,89.795,10.3S93.86,9.22,95.988,8.172c2.919-1.437,5.937-2.923,8.726-2.017,2.918.948,4.514,4,6.058,6.953,1.065,2.038,2.166,4.145,3.575,5.17,1.436,1.044,3.8,1.449,6.091,1.841,3.26.558,6.632,1.134,8.411,3.579,1.759,2.417,1.273,5.781.8,9.036-.334,2.315-.679,4.709-.121,6.43.524,1.613,2.092,3.212,3.751,4.9,2.351,2.4,4.783,4.878,4.783,8.008s-2.432,5.609-4.783,8.008c-1.66,1.693-3.227,3.292-3.751,4.9-.558,1.72-.213,4.115.121,6.43.469,3.254.955,6.619-.8,9.036-1.779,2.445-5.15,3.021-8.41,3.579-2.289.391-4.656.8-6.091,1.841-1.408,1.025-2.509,3.132-3.574,5.169-1.543,2.953-3.14,6.006-6.058,6.954A5.781,5.781,0,0,1,102.909,98.273ZM89.795,91.568c2.394,0,4.837,1.2,7.2,2.367,2.625,1.293,5.1,2.514,7.016,1.894,2.034-.661,3.411-3.3,4.742-5.842,1.186-2.27,2.413-4.617,4.253-5.956,1.866-1.359,4.5-1.809,7.048-2.244,2.94-.5,5.718-.978,6.952-2.674,1.215-1.669.816-4.438.392-7.37-.371-2.573-.755-5.234-.033-7.459.689-2.122,2.521-3.99,4.291-5.8,2.031-2.072,4.132-4.214,4.132-6.412s-2.1-4.341-4.132-6.412c-1.771-1.806-3.6-3.674-4.291-5.8-.722-2.225-.338-4.886.033-7.459.423-2.932.822-5.7-.392-7.37-1.234-1.7-4.012-2.171-6.952-2.674-2.547-.436-5.181-.886-7.047-2.244-1.839-1.339-3.067-3.687-4.253-5.957-1.331-2.547-2.708-5.182-4.742-5.842-1.908-.621-4.39.6-7.017,1.894-2.362,1.163-4.805,2.367-7.2,2.367s-4.837-1.2-7.2-2.367C79.968,8.923,77.488,7.7,75.578,8.323c-2.033.66-3.41,3.294-4.742,5.842-1.186,2.27-2.413,4.617-4.253,5.956-1.866,1.358-4.5,1.809-7.047,2.244-2.94.5-5.718.977-6.952,2.674-1.215,1.669-.816,4.438-.392,7.37.371,2.573.755,5.234.033,7.459-.689,2.122-2.521,3.99-4.291,5.8C45.9,47.735,43.8,49.877,43.8,52.076s2.1,4.341,4.132,6.412c1.771,1.806,3.6,3.674,4.292,5.8.722,2.225.338,4.886-.033,7.459-.423,2.932-.822,5.7.392,7.369,1.234,1.7,4.011,2.171,6.952,2.674,2.547.436,5.181.886,7.047,2.244,1.839,1.339,3.067,3.686,4.254,5.956,1.331,2.548,2.708,5.182,4.742,5.842,1.91.621,4.391-.6,7.017-1.894,2.363-1.164,4.806-2.367,7.2-2.367Z" transform="translate(-41.524 -5.877)"/><path class="b" d="M100.182,95.426a34.53,34.53,0,1,1,34.53-34.53A34.569,34.569,0,0,1,100.182,95.426Zm0-66.783A32.252,32.252,0,1,0,132.435,60.9,32.289,32.289,0,0,0,100.182,28.643Z" transform="translate(-51.911 -14.697)"/><path class="b" d="M104.391,94.067A28.963,28.963,0,1,1,133.354,65.1,29,29,0,0,1,104.391,94.067Zm0-55.648A26.685,26.685,0,1,0,131.076,65.1,26.715,26.715,0,0,0,104.391,38.419Z" transform="translate(-56.12 -18.906)"/></g></svg>