<svg xmlns="http://www.w3.org/2000/svg" width="134.417" height="131.497" viewBox="0 0 134.417 131.497"><defs><style>.a{fill:#fe3d5c;}.b{fill:#f88497;}.c{fill:#e0e0e2;}.d{fill:#c6c5ca;}.e{fill:#00d7df;}.f{fill:#ffb655;}.g{fill:#fdb62f;}.h{fill:#ffcd00;}.i{fill:#ffdaaa;}.j{fill:#ffc477;}.k{fill:#00b6bd;}.l{fill:#161616;}</style></defs><g transform="translate(-0.141)"><rect class="a" width="119.941" height="74.081" rx="2" transform="translate(0.141 28.708)"/><path class="b" d="M123.347,23.383V89.132a4.4,4.4,0,0,1-4.383,4.383H9.383A4.4,4.4,0,0,1,5,89.132V84.749H88.282a26.3,26.3,0,0,0,26.3-26.3V19h4.383a4.4,4.4,0,0,1,4.383,4.383Z" transform="translate(-4.183 9.438)"/><path class="c" d="M130.114,57l-1.359,5.457a4.366,4.366,0,0,1-4.252,3.309H8.611a4.366,4.366,0,0,1-4.252-3.309L3,57H57.79v4.383H75.323V57Z" transform="translate(2.253 63.539)"/><path class="d" d="M68.817,57l-1.359,5.457a4.366,4.366,0,0,1-4.252,3.309H54.44a4.366,4.366,0,0,0,4.252-3.309L60.051,57Z" transform="translate(63.55 63.539)"/><path class="e" d="M89.515,49.766V67.3H15V49.766A8.766,8.766,0,0,1,23.766,41H80.749A8.766,8.766,0,0,1,89.515,49.766Z" transform="translate(16.553 44.473)"/><path class="f" d="M47.575,25.383v2.192a4.4,4.4,0,0,1-4.383,4.383H41V21h2.192A4.4,4.4,0,0,1,47.575,25.383Z" transform="translate(47.535 20.641)"/><path class="g" d="M72.6,7V22.341A13.112,13.112,0,0,1,66.7,33.3a7.03,7.03,0,0,1-.679.416V31.108L53.663,27.733a11.973,11.973,0,0,1-2.981,3.375C46.3,34.5,40.053,34.329,39.725,33.3c-.153-.482,1.052-.964,2.192-2.192a11.55,11.55,0,0,0,2.192-6.575H41.916L26.575,31.108v4.383A6.6,6.6,0,0,1,20,28.916V24.533A17.533,17.533,0,0,1,37.533,7Z" transform="translate(22.511 3.958)"/><path class="h" d="M48.1,7V22.341A13.112,13.112,0,0,1,42.2,33.3a7.029,7.029,0,0,1-.679.416V31.108l-.964-.263a12.957,12.957,0,0,0,3.156-8.5V7Z" transform="translate(47.011 3.958)"/><path class="i" d="M60.389,47.874A19.725,19.725,0,0,1,23,39.108V21.575L38.341,15h2.192a11.55,11.55,0,0,1-2.192,6.575C37.2,22.8,36,23.284,36.15,23.766c.329,1.03,6.575,1.205,10.958-2.192A11.973,11.973,0,0,0,50.088,18.2l12.361,3.375V39.108A19.628,19.628,0,0,1,60.389,47.874Z" transform="translate(26.086 13.491)"/><path class="i" d="M55.683,48.769,40.341,57.536,25,48.769l8.766-6.575V34.48a19.536,19.536,0,0,0,13.15,0v7.715Z" transform="translate(28.469 36.704)"/><path class="j" d="M48.533,48.769,33.192,57.536,31,56.287l13.15-7.517-8.766-6.575V35.488a18.478,18.478,0,0,0,4.383-1.008v7.715Z" transform="translate(35.619 36.704)"/><path class="k" d="M89.515,49.337V66.87H15V62.487H67.6A17.533,17.533,0,0,0,85.132,44.954a8.615,8.615,0,0,0-.789-3.594,8.74,8.74,0,0,1,5.172,7.978Z" transform="translate(16.553 44.902)"/><path class="j" d="M60.435,18.655V36.188A19.731,19.731,0,0,1,24.69,47.694,19.7,19.7,0,0,0,56.052,31.805V17.45Z" transform="translate(28.1 16.411)"/><path class="f" d="M26.575,21V31.958H24.383A4.4,4.4,0,0,1,20,27.575V25.383A4.4,4.4,0,0,1,24.383,21Z" transform="translate(22.511 20.641)"/><path class="l" d="M133.032,56.844A2.192,2.192,0,0,0,131.305,56H76.515a2.192,2.192,0,0,0-2.192,2.192v2.192H61.174V58.192A2.192,2.192,0,0,0,58.982,56H4.192a2.192,2.192,0,0,0-2.126,2.724L3.427,64.17a6.575,6.575,0,0,0,6.38,4.979H125.691a6.575,6.575,0,0,0,6.38-4.981l1.361-5.445A2.192,2.192,0,0,0,133.032,56.844ZM9.807,64.766a2.192,2.192,0,0,1-2.128-1.661L7,60.383H56.79v2.192a2.192,2.192,0,0,0,2.192,2.192Zm118.012-1.661a2.192,2.192,0,0,1-2.128,1.661H76.515a2.192,2.192,0,0,0,2.192-2.192V60.383H128.5Z" transform="translate(1.062 62.347)"/><path class="l" d="M120.156,37.066H102.623V12.958A10.958,10.958,0,0,0,91.665,2h-52.6A10.958,10.958,0,0,0,28.108,12.958V37.066H10.575A6.6,6.6,0,0,0,4,43.641v65.749a6.6,6.6,0,0,0,6.575,6.575H120.156a6.6,6.6,0,0,0,6.575-6.575V43.641A6.6,6.6,0,0,0,120.156,37.066ZM32.491,12.958a6.6,6.6,0,0,1,6.575-6.575h52.6a6.6,6.6,0,0,1,6.575,6.575V37.066H91.051A15.341,15.341,0,0,0,93.856,28.3V12.958a2.192,2.192,0,0,0-2.192-2.192H56.6A19.755,19.755,0,0,0,36.874,30.491v4.383a8.965,8.965,0,0,0,.307,2.192h-4.69Zm46.55,52.6A17.533,17.533,0,0,1,47.832,54.6V38.512l12.711-5.435a6.443,6.443,0,0,1-1.162,2.5,11.042,11.042,0,0,1-1.14.986,3.068,3.068,0,0,0-1.534,3.353A2.919,2.919,0,0,0,58.79,41.8a15.78,15.78,0,0,0,12.273-2.981,13.257,13.257,0,0,0,2.586-2.608l9.249,2.52V54.6a17.314,17.314,0,0,1-1.293,6.575H65.365v4.383ZM70.625,82.652l6.093,4.58L65.365,93.719,54.013,87.232l6.093-4.58a2.222,2.222,0,0,0,.877-1.753V76.077a22.135,22.135,0,0,0,8.766,0V80.9A2.222,2.222,0,0,0,70.625,82.652ZM73.3,31.587a2.154,2.154,0,0,0-2.433.964,9.83,9.83,0,0,1-2.455,2.783,12.008,12.008,0,0,1-5,2.17,16.135,16.135,0,0,0,1.951-6.816A2.192,2.192,0,0,0,63.174,28.3H60.982a2.2,2.2,0,0,0-.855.175L44.786,35.05a2.192,2.192,0,0,0-1.337,2.016v1.578a4.357,4.357,0,0,1-2.192-3.77V30.491A15.359,15.359,0,0,1,56.6,15.15H89.473V28.3a10.894,10.894,0,0,1-2.805,7.276,2.065,2.065,0,0,0-1.008-.614ZM43.449,45.832v6.575a2.192,2.192,0,0,1-2.192-2.192V48.024A2.192,2.192,0,0,1,43.449,45.832Zm43.832,0a2.192,2.192,0,0,1,2.192,2.192v2.192a2.192,2.192,0,0,1-2.192,2.192Zm-.11,10.958h.11a6.6,6.6,0,0,0,6.575-6.575H98.24V54.6a6.6,6.6,0,0,1-6.575,6.575H86.273a22.216,22.216,0,0,0,.9-4.383Zm6.29-10.958a6.6,6.6,0,0,0-6.18-4.383H98.24v4.383ZM32.491,41.449H39.9c.263.219.5.438.767.636a6.575,6.575,0,0,0-3.4,3.748H32.491ZM25.916,96.24v15.341H10.575a2.192,2.192,0,0,1-2.192-2.192V43.641a2.192,2.192,0,0,1,2.192-2.192H28.108v6.575A2.192,2.192,0,0,0,30.3,50.216h6.575a6.6,6.6,0,0,0,6.575,6.575h.11A21.969,21.969,0,0,0,56.6,74.674V79.8l-7.3,5.479H36.874A10.958,10.958,0,0,0,25.916,96.24Zm74.515,15.341H30.3V96.24a6.6,6.6,0,0,1,6.575-6.575H49.432L64.27,98.146a2.288,2.288,0,0,0,2.192,0L81.3,89.665H93.856a6.6,6.6,0,0,1,6.575,6.575Zm21.916-2.192a2.192,2.192,0,0,1-2.192,2.192H104.814V96.24A10.958,10.958,0,0,0,93.856,85.282H81.43l-7.3-5.479V74.674a22.135,22.135,0,0,0,10.191-9.117h7.342A10.958,10.958,0,0,0,102.623,54.6V41.449h17.533a2.192,2.192,0,0,1,2.192,2.192Z" transform="translate(3.445 -2)"/></g></svg>