<?xml version="1.0" encoding="utf-8"?>
<!-- Generator: Adobe Illustrator 23.0.2, SVG Export Plug-In . SVG Version: 6.00 Build 0)  -->
<svg version="1.1" id="Layer_1" xmlns="http://www.w3.org/2000/svg" xmlns:xlink="http://www.w3.org/1999/xlink" x="0px" y="0px"
	 viewBox="0 0 18 18" style="enable-background:new 0 0 18 18;" xml:space="preserve">
<style type="text/css">
	.st0{fill-rule:evenodd;clip-rule:evenodd;fill:#FFFFFF;}
</style>
<title>7BD44506-7DBC-4372-8FD6-E4223737125F</title>
<desc>Created with sketchtool.</desc>
<g id="Page-1">
	<g id="Filter03" transform="translate(-28.000000, -565.000000)">
		<g id="Arrival-Time" transform="translate(16.000000, 412.000000)">
			<g id="Evening" transform="translate(0.000000, 142.000000)">
				<g id="ic-moon" transform="translate(12.000000, 11.000000)">
					<path class="st0" d="M7.6,0.9C8,1.2,8,1.7,7.8,2C7.4,2.5,7,3.1,6.8,3.7C6.6,4.3,6.5,5,6.5,5.6c0,1.6,0.6,3,1.7,4.1
						c1.1,1.1,2.5,1.7,4.1,1.7c0.7,0,1.4-0.1,2-0.4c0.6-0.2,1.2-0.6,1.8-1c0.2-0.1,0.4-0.2,0.7-0.1c0.4,0.1,0.6,0.5,0.6,0.9
						l-0.1,0.4c-0.5,1.7-1.5,3.2-2.9,4.3c-1.5,1.2-3.3,1.8-5.2,1.8c-2.2,0-4.3-0.9-5.9-2.5c-1.6-1.6-2.4-3.7-2.4-5.9
						c0-1.9,0.6-3.6,1.7-5.1c1.1-1.5,2.7-2.5,4.5-3l0.1,0C7.3,0.7,7.5,0.8,7.6,0.9z M5.4,3.2L5.4,3.2C4.8,3.6,4.2,4.1,3.8,4.7
						C2.8,5.9,2.4,7.3,2.4,8.9c0,1.8,0.7,3.5,2,4.8c1.3,1.3,3,2,4.8,2c1.6,0,3-0.5,4.2-1.5c0.5-0.4,1-0.9,1.4-1.4l0.2-0.3l-0.4,0.1
						c-0.7,0.2-1.4,0.3-2.2,0.3c-2,0-3.8-0.8-5.2-2.1C5.8,9.5,5,7.6,5,5.6c0-0.7,0.1-1.4,0.3-2.1L5.4,3.2L5.4,3.2z"/>
				</g>
			</g>
		</g>
	</g>
</g>
</svg>
