<?xml version="1.0" encoding="UTF-8"?>
<svg width="22px" height="22px" viewBox="0 0 22 22" version="1.1" xmlns="http://www.w3.org/2000/svg" xmlns:xlink="http://www.w3.org/1999/xlink">
    <!-- Generator: sketchtool 60 (101010) - https://sketch.com -->
    <title>42489A75-0B4C-4AF1-B201-FF4B0C3142F0</title>
    <desc>Created with sketchtool.</desc>
    <g id="Page-1" stroke="none" stroke-width="1" fill="none" fill-rule="evenodd">
        <g id="Search-Results" transform="translate(-145.000000, -683.000000)" fill="#BBBBBB">
            <g id="Filters" transform="translate(135.000000, 256.000000)">
                <g id="Arrival-Time" transform="translate(0.000000, 380.000000)">
                    <g id="Morning" transform="translate(0.000000, 38.000000)">
                        <g id="ic-morning" transform="translate(10.000000, 9.000000)">
                            <path d="M16.7926829,19.75 C17.0452522,19.75 17.25,20.0857864 17.25,20.5 C17.25,20.9142136 17.0452522,21.25 16.7926829,21.25 L16.7926829,21.25 L5.20731707,21.25 C4.95474783,21.25 4.75,20.9142136 4.75,20.5 C4.75,20.0857864 4.95474783,19.75 5.20731707,19.75 L5.20731707,19.75 Z M18.6463415,16.75 C18.9797329,16.75 19.25,17.0857864 19.25,17.5 C19.25,17.9142136 18.9797329,18.25 18.6463415,18.25 L18.6463415,18.25 L3.35365854,18.25 C3.02026713,18.25 2.75,17.9142136 2.75,17.5 C2.75,17.0857864 3.02026713,16.75 3.35365854,16.75 L3.35365854,16.75 Z M20.5,13.75 C20.9142136,13.75 21.25,14.0857864 21.25,14.5 C21.25,14.9142136 20.9142136,15.25 20.5,15.25 L20.5,15.25 L1.5,15.25 C1.08578644,15.25 0.75,14.9142136 0.75,14.5 C0.75,14.0857864 1.08578644,13.75 1.5,13.75 L1.5,13.75 Z M11,5.72354497 C12.3990018,5.72354497 13.7430782,6.29957768 14.71917,7.27570661 C15.7090838,8.23733716 16.276455,9.5783965 16.276455,11 C16.276455,11.3377492 16.2428813,11.6722971 16.1782095,11.9992387 L14.2558037,11.9994182 C14.3508896,11.6803577 14.4007937,11.3439996 14.4007937,11 C14.4007937,10.077796 14.0421414,9.21050956 13.4158159,8.5841841 C12.7894904,7.95785864 11.922204,7.59920635 11,7.59920635 C10.077796,7.59920635 9.21050956,7.95785864 8.5841841,8.5841841 C7.95785864,9.21050956 7.59920635,10.077796 7.59920635,11 C7.59920635,11.3439996 7.64911035,11.6803577 7.74419627,11.9994182 L5.82182625,11.999275 C5.75711868,11.6722971 5.72354497,11.3377492 5.72354497,11 C5.72354497,9.60099815 6.29957768,8.25692184 7.27570661,7.28083003 C8.23733716,6.29091623 9.5783965,5.72354497 11,5.72354497 Z M20.3121693,10.0621693 C20.8206109,10.0621693 21.25,10.4915584 21.25,11 C21.25,11.4574742 20.9003445,11.857454 20.4308886,11.9294186 L20.3121693,11.9378307 L18.2751323,11.9378307 C17.7666907,11.9378307 17.3373016,11.5084416 17.3373016,11 C17.3373016,10.5425258 17.6869571,10.142546 18.1564129,10.0705814 L18.2751323,10.0621693 L20.3121693,10.0621693 Z M3.77486772,10.0621693 C4.28330928,10.0621693 4.71269841,10.4915584 4.71269841,11 C4.71269841,11.4574742 4.36304288,11.857454 3.89358706,11.9294186 L3.77486772,11.9378307 L1.73783069,11.9378307 C1.22938913,11.9378307 0.8,11.5084416 0.8,11 C0.8,10.5425258 1.14965553,10.142546 1.61911135,10.0705814 L1.73783069,10.0621693 L3.77486772,10.0621693 Z M18.2667238,3.75973124 L18.347662,3.85198058 C18.5938382,4.17288653 18.6030484,4.62030737 18.3516469,4.96724238 L18.2667238,5.06566558 L16.8116973,6.52069204 C16.4479267,6.88446263 15.8326916,6.88446263 15.505763,6.52069204 C15.1830967,6.19802578 15.1442982,5.69480941 15.4208398,5.3131809 L15.505763,5.2147577 L16.9607894,3.75973124 C17.3229708,3.3975499 17.9045424,3.3975499 18.2667238,3.75973124 Z M4.92497026,3.66239026 L5.03921056,3.75973124 L6.49423701,5.2147577 C6.85641835,5.57693903 6.85641835,6.1585107 6.49423701,6.52069204 C6.17157076,6.8433583 5.66835439,6.88215678 5.28672587,6.60561519 L5.18830267,6.52069204 L3.73327621,5.06566558 C3.37109488,4.70348425 3.37109488,4.12191258 3.73327621,3.75973124 C4.05594247,3.43706498 4.55915884,3.3982665 4.92497026,3.66239026 Z M11,0.75 C11.4574742,0.75 11.857454,1.09965553 11.9294186,1.56911135 L11.9378307,1.68783069 L11.9378307,3.72486772 C11.9378307,4.23330928 11.5084416,4.66269841 11,4.66269841 C10.5425258,4.66269841 10.142546,4.31304288 10.0705814,3.84358706 L10.0621693,3.72486772 L10.0621693,1.68783069 C10.0621693,1.17938913 10.4915584,0.75 11,0.75 Z"></path>
                        </g>
                    </g>
                </g>
            </g>
        </g>
    </g>
</svg>