<?xml version="1.0" encoding="UTF-8"?>
<svg width="18px" height="18px" viewBox="0 0 18 18" version="1.1" xmlns="http://www.w3.org/2000/svg" xmlns:xlink="http://www.w3.org/1999/xlink">
    <!-- Generator: sketchtool 60 (101010) - https://sketch.com -->
    <title>494AAC44-79CE-461C-BB05-F78D9952C336</title>
    <desc>Created with sketchtool.</desc>
    <g id="Page-1" stroke="none" stroke-width="1" fill="none" fill-rule="evenodd">
        <g id="Search-Results" transform="translate(-147.000000, -575.000000)" fill="#BBBBBB">
            <g id="Filters" transform="translate(135.000000, 256.000000)">
                <g id="Departure-Time" transform="translate(0.000000, 166.000000)">
                    <g id="Evening" transform="translate(0.000000, 142.000000)">
                        <g id="filters/moon-default" transform="translate(12.000000, 11.000000)">
                            <g id="ic-moon">
                                <path d="M7.64045959,0.925102918 C7.97231198,1.1975691 8.02811721,1.68290769 7.75531097,2.01747185 C7.35021442,2.50141806 7.03611346,3.06779423 6.81938768,3.70044307 C6.61455951,4.31707892 6.50497616,4.96688396 6.50497616,5.61197415 C6.50497616,7.16418125 7.1217694,8.63094304 8.19053601,9.70345146 C9.25913564,10.7757923 10.7203197,11.39455 12.2665053,11.39455 C12.9749049,11.39455 13.6390519,11.276066 14.2459907,11.0403564 C14.8763772,10.8103224 15.4662295,10.4621357 16.0058613,10.0050297 C16.2103798,9.85843355 16.4486504,9.80444216 16.6743544,9.86121462 C17.0795369,9.94834342 17.3153445,10.332901 17.2384429,10.7226864 L17.1288947,11.1435848 C16.649191,12.856673 15.6419706,14.3681005 14.2607892,15.4528089 C12.7822175,16.6092598 10.9813066,17.25 9.09716171,17.25 C6.8547069,17.25 4.7525123,16.3594229 3.19481052,14.7962675 C1.6372757,13.2332797 0.75,11.1241871 0.75,8.87448966 C0.75,7.01217722 1.36350277,5.24694872 2.47924315,3.77606737 C3.6137039,2.31543691 5.18187767,1.2534888 6.94601744,0.774462085 L7.06792714,0.753234481 C7.26352254,0.735387013 7.45919837,0.794627015 7.64045959,0.925102918 Z M5.38385397,3.21452247 L5.39342087,3.18597771 C4.77381291,3.596702 4.22040739,4.11411369 3.75370255,4.71842177 C2.84619881,5.89218834 2.35415841,7.32257411 2.35415841,8.8539707 C2.35415841,10.6783048 3.08202597,12.3947821 4.34642893,13.6636118 C5.61066523,14.9322743 7.32069665,15.6624948 9.13805646,15.6624948 C10.688248,15.6624948 12.1558129,15.1390952 13.3391963,14.1972736 C13.8580255,13.790916 14.3188596,13.3055564 14.7112459,12.7575894 L14.9016867,12.4784645 L14.5122511,12.6189545 C13.8131344,12.8468522 13.0666973,12.9615362 12.2869527,12.9615362 C10.3305155,12.9615362 8.47388754,12.1735062 7.1207071,10.8155882 C5.76769355,9.45783768 4.98260726,7.59517081 4.98260726,5.63249311 C4.98260726,4.89158159 5.07963394,4.19374951 5.27687027,3.53856359 L5.39342087,3.18597771 L5.38385397,3.21452247 Z"></path>
                            </g>
                        </g>
                    </g>
                </g>
            </g>
        </g>
    </g>
</svg>