<?xml version="1.0" encoding="utf-8"?>
<!-- Generator: Adobe Illustrator 23.0.2, SVG Export Plug-In . SVG Version: 6.00 Build 0)  -->
<svg version="1.1" id="Layer_1" xmlns="http://www.w3.org/2000/svg" xmlns:xlink="http://www.w3.org/1999/xlink" x="0px" y="0px"
	 viewBox="0 0 22 22" style="enable-background:new 0 0 22 22;" xml:space="preserve">
<style type="text/css">
	.st0{fill-rule:evenodd;clip-rule:evenodd;fill:#FFFFFF;}
</style>
<title>BC360940-29ED-4128-A826-66C5B8AB3F4D</title>
<desc>Created with sketchtool.</desc>
<g id="Page-1">
	<g id="Search-Results-Expanded" transform="translate(-145.000000, -429.000000)">
		<g id="Filters" transform="translate(135.000000, 256.000000)">
			<g id="Departure-Time" transform="translate(0.000000, 126.000000)">
				<g id="Morning" transform="translate(0.000000, 38.000000)">
					<g transform="translate(10.000000, 9.000000)">
						<g id="ic-morning-selected">
							<path class="st0" d="M16.8,19.8c0.3,0,0.5,0.3,0.5,0.8s-0.2,0.8-0.5,0.8l0,0H5.2c-0.3,0-0.5-0.3-0.5-0.8s0.2-0.8,0.5-0.8l0,0
								H16.8z M18.6,16.8c0.3,0,0.6,0.3,0.6,0.8s-0.3,0.8-0.6,0.8l0,0H3.4c-0.3,0-0.6-0.3-0.6-0.8s0.3-0.8,0.6-0.8l0,0H18.6z
								 M20.5,13.8c0.4,0,0.8,0.3,0.8,0.8s-0.3,0.8-0.8,0.8l0,0h-19c-0.4,0-0.8-0.3-0.8-0.8s0.3-0.8,0.8-0.8l0,0H20.5z M11,5.7
								c1.4,0,2.7,0.6,3.7,1.6c1,1,1.6,2.3,1.6,3.7c0,0.3,0,0.7-0.1,1l-1.9,0c0.1-0.3,0.1-0.7,0.1-1c0-0.9-0.4-1.8-1-2.4
								c-0.6-0.6-1.5-1-2.4-1S9.2,8,8.6,8.6s-1,1.5-1,2.4c0,0.3,0,0.7,0.1,1l-1.9,0c-0.1-0.3-0.1-0.7-0.1-1c0-1.4,0.6-2.7,1.6-3.7
								C8.2,6.3,9.6,5.7,11,5.7z M20.3,10.1c0.5,0,0.9,0.4,0.9,0.9c0,0.5-0.3,0.9-0.8,0.9l-0.1,0h-2c-0.5,0-0.9-0.4-0.9-0.9
								c0-0.5,0.3-0.9,0.8-0.9l0.1,0H20.3z M3.8,10.1c0.5,0,0.9,0.4,0.9,0.9c0,0.5-0.3,0.9-0.8,0.9l-0.1,0h-2
								c-0.5,0-0.9-0.4-0.9-0.9c0-0.5,0.3-0.9,0.8-0.9l0.1,0H3.8z M18.3,3.8L18.3,3.8c0.3,0.4,0.3,0.9,0.1,1.2l-0.1,0.1l-1.5,1.5
								c-0.4,0.4-1,0.4-1.3,0c-0.3-0.3-0.4-0.8-0.1-1.2l0.1-0.1L17,3.8C17.3,3.4,17.9,3.4,18.3,3.8z M4.9,3.7L5,3.8l1.5,1.5
								c0.4,0.4,0.4,0.9,0,1.3C6.2,6.8,5.7,6.9,5.3,6.6L5.2,6.5L3.7,5.1c-0.4-0.4-0.4-0.9,0-1.3C4.1,3.4,4.6,3.4,4.9,3.7z M11,0.8
								c0.5,0,0.9,0.3,0.9,0.8l0,0.1v2c0,0.5-0.4,0.9-0.9,0.9c-0.5,0-0.9-0.3-0.9-0.8l0-0.1v-2C10.1,1.2,10.5,0.8,11,0.8z"/>
						</g>
					</g>
				</g>
			</g>
		</g>
	</g>
</g>
</svg>
