<?xml version="1.0" encoding="utf-8"?>
<!-- Generator: Adobe Illustrator 23.0.2, SVG Export Plug-In . SVG Version: 6.00 Build 0)  -->
<svg version="1.1" id="Layer_1" xmlns="http://www.w3.org/2000/svg" xmlns:xlink="http://www.w3.org/1999/xlink" x="0px" y="0px"
	 viewBox="0 0 22 22" style="enable-background:new 0 0 22 22;" xml:space="preserve">
<style type="text/css">
	.st0{fill-rule:evenodd;clip-rule:evenodd;fill:#FFFFFF;}
</style>
<title>D1CDFED9-5F02-4E43-96F0-6AD09D00E028</title>
<desc>Created with sketchtool.</desc>
<g id="Page-1">
	<g id="Search-Results-Expanded" transform="translate(-145.000000, -481.000000)">
		<g id="Filters" transform="translate(135.000000, 256.000000)">
			<g id="Departure-Time" transform="translate(0.000000, 126.000000)">
				<g id="Afternoon" transform="translate(0.000000, 90.000000)">
					<g transform="translate(10.000000, 9.000000)">
						<g id="ic-noon-selected">
							<path class="st0" d="M11,17.3c0.5,0,0.9,0.3,0.9,0.8l0,0.1v2c0,0.5-0.4,0.9-0.9,0.9c-0.5,0-0.9-0.3-0.9-0.8l0-0.1v-2
								C10.1,17.8,10.5,17.3,11,17.3z M6.5,15.5L6.5,15.5c0.3,0.4,0.3,0.9,0.1,1.2l-0.1,0.1L5,18.2c-0.4,0.4-0.9,0.4-1.3,0
								c-0.3-0.3-0.4-0.8-0.1-1.2l0.1-0.1l1.5-1.5C5.6,15.1,6.2,15.1,6.5,15.5z M16.7,15.4l0.1,0.1l1.5,1.5c0.4,0.4,0.4,0.9,0,1.3
								c-0.3,0.3-0.8,0.4-1.2,0.1l-0.1-0.1l-1.5-1.5c-0.4-0.4-0.4-0.9,0-1.3C15.8,15.2,16.3,15.1,16.7,15.4z M11,5.7
								c1.4,0,2.7,0.6,3.7,1.6c1,1,1.6,2.3,1.6,3.7c0,1.4-0.6,2.7-1.6,3.7c-1,1-2.3,1.6-3.7,1.6c-1.4,0-2.7-0.6-3.7-1.6
								S5.7,12.4,5.7,11s0.6-2.7,1.6-3.7C8.2,6.3,9.6,5.7,11,5.7z M11,7.6c-0.9,0-1.8,0.4-2.4,1s-1,1.5-1,2.4s0.4,1.8,1,2.4
								c0.6,0.6,1.5,1,2.4,1s1.8-0.4,2.4-1c0.6-0.6,1-1.5,1-2.4s-0.4-1.8-1-2.4C12.8,8,11.9,7.6,11,7.6z M20.3,10.1
								c0.5,0,0.9,0.4,0.9,0.9c0,0.5-0.3,0.9-0.8,0.9l-0.1,0h-2c-0.5,0-0.9-0.4-0.9-0.9c0-0.5,0.3-0.9,0.8-0.9l0.1,0H20.3z
								 M3.7,10.1c0.5,0,0.9,0.4,0.9,0.9c0,0.5-0.3,0.9-0.8,0.9l-0.1,0h-2c-0.5,0-0.9-0.4-0.9-0.9c0-0.5,0.3-0.9,0.8-0.9l0.1,0H3.7z
								 M18.3,3.8L18.3,3.8c0.3,0.4,0.3,0.9,0.1,1.2l-0.1,0.1l-1.5,1.5c-0.4,0.4-1,0.4-1.3,0c-0.3-0.3-0.4-0.8-0.1-1.2l0.1-0.1
								L17,3.8C17.3,3.4,17.9,3.4,18.3,3.8z M4.9,3.7L5,3.8l1.5,1.5c0.4,0.4,0.4,0.9,0,1.3C6.2,6.8,5.7,6.9,5.3,6.6L5.2,6.5L3.7,5.1
								c-0.4-0.4-0.4-0.9,0-1.3C4.1,3.4,4.6,3.4,4.9,3.7z M11,0.8c0.5,0,0.9,0.3,0.9,0.8l0,0.1v2c0,0.5-0.4,0.9-0.9,0.9
								c-0.5,0-0.9-0.3-0.9-0.8l0-0.1v-2C10.1,1.2,10.5,0.8,11,0.8z"/>
						</g>
					</g>
				</g>
			</g>
		</g>
	</g>
</g>
</svg>
