<?xml version="1.0" encoding="UTF-8"?>
<svg width="22px" height="22px" viewBox="0 0 22 22" version="1.1" xmlns="http://www.w3.org/2000/svg" xmlns:xlink="http://www.w3.org/1999/xlink">
    <!-- Generator: sketchtool 60 (101010) - https://sketch.com -->
    <title>17D8F1D3-996B-4AE1-86A4-42CA701F1C8B</title>
    <desc>Created with sketchtool.</desc>
    <g id="Page-1" stroke="none" stroke-width="1" fill="none" fill-rule="evenodd">
        <g id="Search-Results" transform="translate(-145.000000, -521.000000)" fill="#BBBBBB">
            <g id="Filters" transform="translate(135.000000, 256.000000)">
                <g id="Departure-Time" transform="translate(0.000000, 166.000000)">
                    <g id="Afternoon" transform="translate(0.000000, 90.000000)">
                        <g id="filters/noon-default" transform="translate(10.000000, 9.000000)">
                            <g id="ic-noon">
                                <path d="M11,17.3373016 C11.4574742,17.3373016 11.857454,17.6869571 11.9294186,18.1564129 L11.9378307,18.2751323 L11.9378307,20.3121693 C11.9378307,20.8206109 11.5084416,21.25 11,21.25 C10.5425258,21.25 10.142546,20.9003445 10.0705814,20.4308886 L10.0621693,20.3121693 L10.0621693,18.2751323 C10.0621693,17.7666907 10.4915584,17.3373016 11,17.3373016 Z M6.49880614,15.4839084 L6.57865982,15.576129 C6.82143288,15.8967025 6.82936998,16.3415285 6.57916016,16.6868191 L6.49423701,16.7852423 L5.03921056,18.2402688 C4.67702922,18.6024501 4.09545755,18.6024501 3.73327621,18.2402688 C3.41060996,17.9176025 3.37181147,17.4143861 3.64835307,17.0327576 L3.73327621,16.9343344 L5.18830267,15.479308 C5.55046311,15.1171475 6.1618669,15.1155445 6.49880614,15.4839084 Z M16.6830529,15.3861475 L16.7852423,15.479308 L18.2402688,16.9343344 C18.6024501,17.2965158 18.6024501,17.8780874 18.2402688,18.2402688 C17.9176025,18.562935 17.4143861,18.6017335 17.0327576,18.3251919 L16.9343344,18.2402688 L15.479308,16.7852423 C15.1171266,16.423061 15.1171266,15.8414893 15.479308,15.479308 C15.8023999,15.156216 16.3306741,15.1163838 16.6830529,15.3861475 Z M11,5.72354497 C12.3990018,5.72354497 13.7430782,6.29957768 14.71917,7.27570661 C15.7090838,8.23733716 16.276455,9.5783965 16.276455,11 C16.276455,12.3990018 15.7004223,13.7430782 14.7242934,14.71917 C13.7626628,15.7090838 12.4216035,16.276455 11,16.276455 C9.60099815,16.276455 8.25692184,15.7004223 7.27824976,14.7217502 C6.29957768,13.7430782 5.72354497,12.3990018 5.72354497,11 C5.72354497,9.60099815 6.29957768,8.25692184 7.27570661,7.28083003 C8.23733716,6.29091623 9.5783965,5.72354497 11,5.72354497 Z M11,7.59920635 C10.077796,7.59920635 9.21050956,7.95785864 8.5841841,8.5841841 C7.95785864,9.21050956 7.59920635,10.077796 7.59920635,11 C7.59920635,11.922204 7.95785864,12.7894904 8.5841841,13.4158159 C9.21050956,14.0421414 10.077796,14.4007937 11,14.4007937 C11.922204,14.4007937 12.7894904,14.0421414 13.4158159,13.4158159 C14.0421414,12.7894904 14.4007937,11.922204 14.4007937,11 C14.4007937,10.077796 14.0421414,9.21050956 13.4158159,8.5841841 C12.7894904,7.95785864 11.922204,7.59920635 11,7.59920635 Z M20.3121693,10.0621693 C20.8206109,10.0621693 21.25,10.4915584 21.25,11 C21.25,11.4574742 20.9003445,11.857454 20.4308886,11.9294186 L20.3121693,11.9378307 L18.2751323,11.9378307 C17.7666907,11.9378307 17.3373016,11.5084416 17.3373016,11 C17.3373016,10.5425258 17.6869571,10.142546 18.1564129,10.0705814 L18.2751323,10.0621693 L20.3121693,10.0621693 Z M3.72486772,10.0621693 C4.23330928,10.0621693 4.66269841,10.4915584 4.66269841,11 C4.66269841,11.4574742 4.31304288,11.857454 3.84358706,11.9294186 L3.72486772,11.9378307 L1.68783069,11.9378307 C1.16047041,11.9378307 0.75,11.5162665 0.75,11 C0.75,10.5425258 1.09965553,10.142546 1.56911135,10.0705814 L1.68783069,10.0621693 L3.72486772,10.0621693 Z M18.2667238,3.75973124 L18.347662,3.85198058 C18.5938382,4.17288653 18.6030484,4.62030737 18.3516469,4.96724238 L18.2667238,5.06566558 L16.8116973,6.52069204 C16.4479267,6.88446263 15.8326916,6.88446263 15.505763,6.52069204 C15.1830967,6.19802578 15.1442982,5.69480941 15.4208398,5.3131809 L15.505763,5.2147577 L16.9607894,3.75973124 C17.3229708,3.3975499 17.9045424,3.3975499 18.2667238,3.75973124 Z M4.92497026,3.66239026 L5.03921056,3.75973124 L6.49423701,5.2147577 C6.85641835,5.57693903 6.85641835,6.1585107 6.49423701,6.52069204 C6.17157076,6.8433583 5.66835439,6.88215678 5.28672587,6.60561519 L5.18830267,6.52069204 L3.73327621,5.06566558 C3.37109488,4.70348425 3.37109488,4.12191258 3.73327621,3.75973124 C4.05594247,3.43706498 4.55915884,3.3982665 4.92497026,3.66239026 Z M11,0.75 C11.4574742,0.75 11.857454,1.09965553 11.9294186,1.56911135 L11.9378307,1.68783069 L11.9378307,3.72486772 C11.9378307,4.23330928 11.5084416,4.66269841 11,4.66269841 C10.5425258,4.66269841 10.142546,4.31304288 10.0705814,3.84358706 L10.0621693,3.72486772 L10.0621693,1.68783069 C10.0621693,1.17938913 10.4915584,0.75 11,0.75 Z"></path>
                            </g>
                        </g>
                    </g>
                </g>
            </g>
        </g>
    </g>
</svg>